<?xml version="1.0" ?><svg id="Wallet" style="enable-background:new 0 0 32 32;" version="1.1" viewBox="0 0 32 32" xml:space="preserve" xmlns="http://www.w3.org/2000/svg" xmlns:xlink="http://www.w3.org/1999/xlink"><style type="text/css">
	.st0{fill:#C77C58;}
	.st1{fill:#7A442A;}
	.st2{fill:#20AD74;}
</style><g><path class="st0" d="M2,6.25V24c0,3.31,2.69,6,6,6h21c0.55,0,1-0.45,1-1v-5.73h-7.98c-2.22,0-4.02-1.8-4.02-4.02   c0-2.22,1.8-4.02,4.02-4.02H30V10.5H6.25C3.91,10.5,2,8.59,2,6.25z"/><path class="st1" d="M29,8.5H6.25C5.01,8.5,4,7.49,4,6.25c0-0.6,0.23-1.17,0.66-1.59C5.08,4.23,5.65,4,6.25,4H22.5   c0.553,0,1-0.448,1-1s-0.447-1-1-1H6.25C5.11,2,4.04,2.44,3.24,3.24S2,5.11,2,6.25c0,2.34,1.91,4.25,4.25,4.25H30v-1   C30,8.95,29.55,8.5,29,8.5z"/><path class="st2" d="M5.25,6.25c0,0.552,0.448,1,1,1h19.5c0.553,0,1-0.448,1-1s-0.447-1-1-1H6.25C5.698,5.25,5.25,5.698,5.25,6.25z   "/><path class="st1" d="M18,19.25c0,2.22,1.8,4.02,4.02,4.02H30v-8.04h-7.98C19.8,15.23,18,17.03,18,19.25z"/></g></svg>