<?xml version="1.0" encoding="UTF-8" standalone="no"?>
<svg
   width="64pt"
   height="64pt"
   viewBox="0 0 22.577778 22.577778"
   version="1.1"
   id="svg831"
   inkscape:version="1.1.2 (1:1.1+202202050950+0a00cf5339)"
   sodipodi:docname="21 - Shirt Online Store.svg"
   inkscape:export-filename="/media/taufikramadhan/Data/Tr Design Studio/Project Design/TR Creative Design/Icon Design/Project Hiring/Icon Icons/019 - Commerce And Shopping/5 - Send/21 - Shirt Online Store.png"
   inkscape:export-xdpi="576"
   inkscape:export-ydpi="576"
   xmlns:inkscape="http://www.inkscape.org/namespaces/inkscape"
   xmlns:sodipodi="http://sodipodi.sourceforge.net/DTD/sodipodi-0.dtd"
   xmlns="http://www.w3.org/2000/svg"
   xmlns:svg="http://www.w3.org/2000/svg"
   xmlns:rdf="http://www.w3.org/1999/02/22-rdf-syntax-ns#"
   xmlns:cc="http://creativecommons.org/ns#"
   xmlns:dc="http://purl.org/dc/elements/1.1/">
  <defs
     id="defs825">
    <pattern
       id="EMFhbasepattern"
       patternUnits="userSpaceOnUse"
       width="6"
       height="6"
       x="0"
       y="0" />
    <pattern
       id="EMFhbasepattern-9"
       patternUnits="userSpaceOnUse"
       width="6"
       height="6"
       x="0"
       y="0" />
    <pattern
       id="EMFhbasepattern-0"
       patternUnits="userSpaceOnUse"
       width="6"
       height="6"
       x="0"
       y="0" />
    <pattern
       id="EMFhbasepattern-7"
       patternUnits="userSpaceOnUse"
       width="6"
       height="6"
       x="0"
       y="0" />
    <pattern
       id="EMFhbasepattern-2"
       patternUnits="userSpaceOnUse"
       width="6"
       height="6"
       x="0"
       y="0" />
    <pattern
       id="EMFhbasepattern-98"
       patternUnits="userSpaceOnUse"
       width="6"
       height="6"
       x="0"
       y="0" />
    <pattern
       id="EMFhbasepattern-6"
       patternUnits="userSpaceOnUse"
       width="6"
       height="6"
       x="0"
       y="0" />
    <pattern
       id="EMFhbasepattern-01"
       patternUnits="userSpaceOnUse"
       width="6"
       height="6"
       x="0"
       y="0" />
    <pattern
       id="EMFhbasepattern-07"
       patternUnits="userSpaceOnUse"
       width="6"
       height="6"
       x="0"
       y="0" />
    <pattern
       id="EMFhbasepattern-8"
       patternUnits="userSpaceOnUse"
       width="6"
       height="6"
       x="0"
       y="0" />
    <pattern
       id="EMFhbasepattern-4"
       patternUnits="userSpaceOnUse"
       width="6"
       height="6"
       x="0"
       y="0" />
    <pattern
       id="EMFhbasepattern-40"
       patternUnits="userSpaceOnUse"
       width="6"
       height="6"
       x="0"
       y="0" />
    <pattern
       id="EMFhbasepattern-08"
       patternUnits="userSpaceOnUse"
       width="6"
       height="6"
       x="0"
       y="0" />
    <pattern
       id="EMFhbasepattern-04"
       patternUnits="userSpaceOnUse"
       width="6"
       height="6"
       x="0"
       y="0" />
    <pattern
       id="EMFhbasepattern-014"
       patternUnits="userSpaceOnUse"
       width="6"
       height="6"
       x="0"
       y="0" />
    <pattern
       id="EMFhbasepattern-27"
       patternUnits="userSpaceOnUse"
       width="6"
       height="6"
       x="0"
       y="0" />
    <pattern
       id="EMFhbasepattern-09"
       patternUnits="userSpaceOnUse"
       width="6"
       height="6"
       x="0"
       y="0" />
    <pattern
       id="EMFhbasepattern-5"
       patternUnits="userSpaceOnUse"
       width="6"
       height="6"
       x="0"
       y="0" />
    <pattern
       id="EMFhbasepattern-018"
       patternUnits="userSpaceOnUse"
       width="6"
       height="6"
       x="0"
       y="0" />
  </defs>
  <sodipodi:namedview
     id="base"
     pagecolor="#ffffff"
     bordercolor="#666666"
     borderopacity="1.0"
     inkscape:pageopacity="0.0"
     inkscape:pageshadow="2"
     inkscape:zoom="4.4249417"
     inkscape:cx="34.237739"
     inkscape:cy="43.616394"
     inkscape:document-units="pt"
     inkscape:current-layer="layer1"
     showgrid="false"
     units="pt"
     inkscape:window-width="1366"
     inkscape:window-height="705"
     inkscape:window-x="0"
     inkscape:window-y="31"
     inkscape:window-maximized="1"
     inkscape:pagecheckerboard="true"
     inkscape:showpageshadow="false"
     inkscape:object-paths="true"
     inkscape:snap-intersection-paths="true"
     inkscape:snap-smooth-nodes="true"
     inkscape:snap-midpoints="true"
     showguides="true"
     inkscape:snap-bbox="true"
     inkscape:bbox-nodes="true"
     inkscape:snap-nodes="false"
     inkscape:snap-global="true"
     inkscape:document-rotation="0">
    <inkscape:grid
       type="xygrid"
       id="grid1378" />
    <sodipodi:guide
       position="0.97013831,21.607643"
       orientation="78.000048,0"
       id="guide1380"
       inkscape:locked="false" />
    <sodipodi:guide
       position="0.97013831,0.97013129"
       orientation="0,78.000005"
       id="guide1382"
       inkscape:locked="false" />
    <sodipodi:guide
       position="21.607639,0.97013129"
       orientation="-78.000048,0"
       id="guide1384"
       inkscape:locked="false" />
    <sodipodi:guide
       position="21.607639,21.607643"
       orientation="0,-78.000005"
       id="guide1386"
       inkscape:locked="false" />
  </sodipodi:namedview>
  <metadata
     id="metadata828">
    <rdf:RDF>
      <cc:Work
         rdf:about="">
        <dc:format>image/svg+xml</dc:format>
        <dc:type
           rdf:resource="http://purl.org/dc/dcmitype/StillImage" />
      </cc:Work>
    </rdf:RDF>
  </metadata>
  <g
     inkscape:label="Icon"
     inkscape:groupmode="layer"
     id="layer1"
     transform="translate(0,-274.42223)">
    <g
       id="g421356"
       style="display:inline;stroke-width:0.769237"
       transform="matrix(1.2999894,0,0,1.2999894,0.28222712,-168.68595)">
      <path
         style="color:#000000;fill:#91a9d9;fill-opacity:1;stroke-width:0.769237;stroke-linecap:round;stroke-linejoin:round;stroke-miterlimit:1.5;-inkscape-stroke:none"
         d="m 0.79296875,354.03711 a 0.26460996,0.26460996 0 0 0 -0.26367188,0.26367 v 1.05859 c 0,0.43525 0.35773155,0.79493 0.79296873,0.79493 H 15.611328 c 0.435237,0 0.792969,-0.35968 0.792969,-0.79493 v -1.05859 a 0.26460996,0.26460996 0 0 0 -0.265625,-0.26367 z"
         id="path837441" />
      <path
         id="path407912"
         style="fill:#6788cb;fill-opacity:1;stroke-width:2.90735;stroke-linecap:round;stroke-linejoin:round;stroke-miterlimit:1.5"
         d="M 2.9960938,279.57422 A 1.0001006,1.0001006 0 0 0 2,280.57031 v 4 c 0,0.13731 0.013027,0.2716 0.03125,0.4043 0.8445062,0.5869 1.8680829,0.93164 2.9667969,0.93164 H 59.003906 c 1.099119,0 2.120158,-0.3463 2.964844,-0.93359 C 61.98681,284.84054 62,284.70699 62,284.57031 v -4 a 1.0001006,1.0001006 0 0 0 -1.003906,-0.99609 z"
         transform="matrix(0.26458334,0,0,0.26458334,0,280.06666)" />
      <path
         style="color:#000000;fill:#d0e2ee;stroke-width:0.769237;stroke-linecap:round;stroke-linejoin:round;stroke-miterlimit:1.5;-inkscape-stroke:none"
         d="m 1.3221359,342.94943 c -0.43523719,0 -0.79296874,0.35968 -0.79296874,0.79492 v 10.58203 c 0,0.43524 0.35773155,0.79492 0.79296874,0.79492 H 15.611198 c 0.435237,0 0.792969,-0.35968 0.792969,-0.79492 v -10.58203 c 0,-0.43524 -0.357732,-0.79492 -0.792969,-0.79492 z"
         id="path837447" />
      <path
         id="path350173"
         style="color:#000000;fill:#a8c2e1;fill-opacity:1;stroke-width:0.769237;stroke-linecap:round;stroke-linejoin:round;stroke-miterlimit:1.5;-inkscape-stroke:none"
         d="m 1.3223998,342.92381 c -0.43523718,0 -0.79323328,0.35954 -0.79323328,0.79478 v 1.85105 H 15.082284 c 0.435237,0 0.792717,0.35954 0.792717,0.79478 v 8.71105 c 0.306921,-0.11024 0.529166,-0.40495 0.529166,-0.74776 v -10.60912 c 0,-0.43524 -0.357479,-0.79478 -0.792716,-0.79478 z"
         sodipodi:nodetypes="sscsscssss" />
      <path
         style="color:#000000;fill:#3a4d5c;stroke-width:0.769237;stroke-linecap:round;stroke-linejoin:round;stroke-miterlimit:1.5;-inkscape-stroke:none"
         d="m 3.3066406,345.30664 a 0.2645835,0.2645835 0 0 0 -0.2636718,0.26367 0.2645835,0.2645835 0 0 0 0.2636718,0.26367 H 3.96875 A 0.2645835,0.2645835 0 0 0 4.2324219,345.57031 0.2645835,0.2645835 0 0 0 3.96875,345.30664 Z"
         id="path216224" />
      <path
         style="color:#000000;fill:#3a4d5c;stroke-width:0.769237;stroke-linecap:round;stroke-linejoin:round;stroke-miterlimit:1.5;-inkscape-stroke:none"
         d="m 5.0273437,345.30664 a 0.2645835,0.2645835 0 0 0 -0.265625,0.26367 0.2645835,0.2645835 0 0 0 0.265625,0.26367 h 2.7773438 a 0.2645835,0.2645835 0 0 0 0.265625,-0.26367 0.2645835,0.2645835 0 0 0 -0.265625,-0.26367 z"
         id="path216306" />
      <path
         style="color:#000000;fill:#7cb3f4;stroke-width:0.769237;stroke-linecap:round;stroke-linejoin:round;stroke-miterlimit:1.5;-inkscape-stroke:none"
         d="M 4.4414062,346.63477 3.25,346.90039 a 0.26460996,0.26460996 0 0 0 -0.1289062,0.0703 l -1.3242188,1.32422 a 0.26460996,0.26460996 0 0 0 0,0.37305 l 1.0585938,1.05859 a 0.26460996,0.26460996 0 0 0 0.375,0 l 0.099609,-0.0996 0.109375,2.83399 a 0.26460996,0.26460996 0 0 0 0.265625,0.2539 h 3.703125 a 0.26460996,0.26460996 0 0 0 0.2636719,-0.2539 l 0.109375,-2.83594 0.1015625,0.10156 a 0.26460996,0.26460996 0 0 0 0.375,0 l 1.0566406,-1.05859 a 0.26460996,0.26460996 0 0 0 0,-0.37305 L 7.9921875,346.9707 A 0.26460996,0.26460996 0 0 0 7.8632812,346.9004 L 6.671875,346.63477 a 0.26460996,0.26460996 0 0 0 -0.1757813,0.0215 l -0.9394531,0.4707 -0.9394531,-0.4707 a 0.26460996,0.26460996 0 0 0 -0.1757813,-0.0215 z"
         id="path837467" />
      <path
         style="color:#000000;fill:#143441;fill-opacity:1;stroke-width:0.769237;stroke-linecap:round;stroke-linejoin:round;stroke-miterlimit:1.5;-inkscape-stroke:none"
         d="m 5.4229771,353.50765 a 0.2645835,0.2645835 0 0 0 -0.2636718,0.26562 0.2645835,0.2645835 0 0 0 0.2636718,0.26368 0.2645835,0.2645835 0 0 0 0.265625,-0.26368 0.2645835,0.2645835 0 0 0 -0.265625,-0.26562 z"
         id="path217644" />
      <path
         id="path837453"
         style="color:#000000;fill:#dc1c4b;stroke-width:2.90735;stroke-linecap:round;stroke-linejoin:round;stroke-miterlimit:1.5;-inkscape-stroke:none"
         d="M 4.9980469,237.57031 C 3.353056,237.57031 2,238.92922 2,240.57422 v 4.00195 h 60 v -4.00195 c 0,-1.645 -1.351104,-3.00391 -2.996094,-3.00391 z"
         transform="matrix(0.26458334,0,0,0.26458334,0,280.06666)" />
      <path
         style="color:#000000;fill:#143441;fill-opacity:1;stroke-width:0.769237;stroke-linecap:round;stroke-linejoin:round;stroke-miterlimit:1.5;-inkscape-stroke:none"
         d="m 4.3647104,353.50765 a 0.2645835,0.2645835 0 0 0 -0.2636718,0.26562 0.2645835,0.2645835 0 0 0 0.2636718,0.26368 0.2645835,0.2645835 0 0 0 0.265625,-0.26368 0.2645835,0.2645835 0 0 0 -0.265625,-0.26562 z"
         id="path217825" />
      <path
         style="color:#000000;fill:#143441;fill-opacity:1;stroke-width:0.769237;stroke-linecap:round;stroke-linejoin:round;stroke-miterlimit:1.5;-inkscape-stroke:none"
         d="m 6.4812436,353.50765 a 0.2645835,0.2645835 0 0 0 -0.2636718,0.26562 0.2645835,0.2645835 0 0 0 0.2636718,0.26368 0.2645835,0.2645835 0 0 0 0.265625,-0.26368 0.2645835,0.2645835 0 0 0 -0.265625,-0.26562 z"
         id="path217827" />
      <path
         style="color:#000000;fill:#4895ef;stroke-width:0.769237;stroke-linecap:round;stroke-linejoin:round;stroke-miterlimit:1.5;-inkscape-stroke:none"
         d="m 10.714844,345.30664 c -0.435161,0 -0.792969,0.35781 -0.792969,0.79297 0,0.43516 0.357808,0.79297 0.792969,0.79297 h 2.646484 c 0.435161,0 0.792969,-0.35781 0.792969,-0.79297 0,-0.43516 -0.357808,-0.79297 -0.792969,-0.79297 z"
         id="path837479" />
      <path
         style="color:#000000;fill:#3a4d5c;stroke-width:0.769237;stroke-linecap:round;stroke-linejoin:round;stroke-miterlimit:1.5;-inkscape-stroke:none"
         d="m 10.185547,347.6875 a 0.2645835,0.2645835 0 0 0 -0.263672,0.26367 0.2645835,0.2645835 0 0 0 0.263672,0.26563 h 0.529297 a 0.2645835,0.2645835 0 0 0 0.265625,-0.26563 0.2645835,0.2645835 0 0 0 -0.265625,-0.26367 z"
         id="path222348" />
      <path
         style="color:#000000;fill:#143441;fill-opacity:1;stroke-width:0.769237;stroke-linecap:round;stroke-linejoin:round;stroke-miterlimit:1.5;-inkscape-stroke:none"
         d="m 11.773823,347.68774 a 0.2645835,0.2645835 0 0 0 -0.263672,0.26367 0.2645835,0.2645835 0 0 0 0.263672,0.26563 0.2645835,0.2645835 0 0 0 0.265625,-0.26563 0.2645835,0.2645835 0 0 0 -0.265625,-0.26367 z"
         id="path222448" />
      <path
         style="color:#000000;fill:#143441;fill-opacity:1;stroke-width:0.769237;stroke-linecap:round;stroke-linejoin:round;stroke-miterlimit:1.5;-inkscape-stroke:none"
         d="m 12.832287,347.68774 a 0.2645835,0.2645835 0 0 0 -0.263672,0.26367 0.2645835,0.2645835 0 0 0 0.263672,0.26563 0.2645835,0.2645835 0 0 0 0.265625,-0.26563 0.2645835,0.2645835 0 0 0 -0.265625,-0.26367 z"
         id="path222627" />
      <path
         style="color:#000000;fill:#3a4d5c;stroke-width:0.769237;stroke-linecap:round;stroke-linejoin:round;stroke-miterlimit:1.5;-inkscape-stroke:none"
         d="m 10.185547,348.74609 a 0.2645835,0.2645835 0 0 0 -0.263672,0.26368 0.2645835,0.2645835 0 0 0 0.263672,0.26562 h 3.175781 a 0.2645835,0.2645835 0 0 0 0.265625,-0.26562 0.2645835,0.2645835 0 0 0 -0.265625,-0.26368 z"
         id="path222629" />
      <path
         style="color:#000000;fill:#3a4d5c;stroke-width:0.769237;stroke-linecap:round;stroke-linejoin:round;stroke-miterlimit:1.5;-inkscape-stroke:none"
         d="m 14.419922,348.74609 a 0.2645835,0.2645835 0 0 0 -0.265625,0.26368 0.2645835,0.2645835 0 0 0 0.265625,0.26562 h 0.529297 a 0.2645835,0.2645835 0 0 0 0.263672,-0.26562 0.2645835,0.2645835 0 0 0 -0.263672,-0.26368 z"
         id="path222683" />
      <path
         style="color:#000000;fill:#143441;fill-opacity:1;stroke-width:0.769237;stroke-linecap:round;stroke-linejoin:round;stroke-miterlimit:1.5;-inkscape-stroke:none"
         d="m 11.509766,349.80273 a 0.2645835,0.2645835 0 0 0 -0.265625,0.26563 0.2645835,0.2645835 0 0 0 0.265625,0.26367 h 2.380859 a 0.2645835,0.2645835 0 0 0 0.263672,-0.26367 0.2645835,0.2645835 0 0 0 -0.263672,-0.26563 z"
         id="path223740" />
      <path
         style="color:#000000;fill:#143441;fill-opacity:1;stroke-width:0.769237;stroke-linecap:round;stroke-linejoin:round;stroke-miterlimit:1.5;-inkscape-stroke:none"
         d="m 10.185547,349.80273 a 0.2645835,0.2645835 0 0 0 -0.263672,0.26563 0.2645835,0.2645835 0 0 0 0.263672,0.26367 h 0.265625 a 0.2645835,0.2645835 0 0 0 0.263672,-0.26367 0.2645835,0.2645835 0 0 0 -0.263672,-0.26563 z"
         id="path223742" />
      <path
         style="color:#000000;fill:#143441;fill-opacity:1;stroke-width:0.769237;stroke-linecap:round;stroke-linejoin:round;stroke-miterlimit:1.5;-inkscape-stroke:none"
         d="m 10.185547,351.12695 a 0.2645835,0.2645835 0 0 0 -0.263672,0.26367 0.2645835,0.2645835 0 0 0 0.263672,0.26563 h 1.587891 a 0.2645835,0.2645835 0 0 0 0.265625,-0.26563 0.2645835,0.2645835 0 0 0 -0.265625,-0.26367 z"
         id="path224696" />
      <path
         style="color:#000000;fill:#4895ef;stroke-width:0.769237;stroke-linecap:round;stroke-linejoin:round;stroke-miterlimit:1.5;-inkscape-stroke:none"
         d="m 10.714844,352.44922 c -0.435161,0 -0.792969,0.35976 -0.792969,0.79492 0,0.43516 0.357808,0.79297 0.792969,0.79297 h 1.324219 c 0.43516,0 0.792968,-0.35781 0.792968,-0.79297 0,-0.43516 -0.357808,-0.79492 -0.792968,-0.79492 z"
         id="path837513" />
      <path
         id="path214346"
         style="color:#000000;fill:#d0e2ee;stroke-width:2.90735;stroke-linecap:round;stroke-linejoin:round;stroke-miterlimit:1.5;-inkscape-stroke:none"
         d="m 51.998047,241.57227 v 1.0039 h 2 v -1.0039 c -0.0019,-0.54959 -0.446501,-0.99616 -1.00879,-0.99805 -0.553289,0.0115 -0.989335,0.45419 -0.99121,0.99805 z m 4,0 v 1.0039 H 58 v -1.0039 c -0.0019,-0.54959 -0.446498,-0.99616 -1.009766,-0.99805 -0.554266,0.0115 -0.990312,0.45419 -0.992187,0.99805 z"
         transform="matrix(0.26458334,0,0,0.26458334,0,280.06666)"
         sodipodi:nodetypes="cccccccccccc" />
      <path
         id="path371372"
         style="color:#000000;fill:#4377d1;fill-opacity:1;stroke-width:0.769237;stroke-linecap:round;stroke-linejoin:round;stroke-miterlimit:1.5;-inkscape-stroke:none"
         d="m 10.714592,345.30661 c -0.342826,0 -0.637048,0.22215 -0.7467249,0.52916 h 2.8644249 c 0.435161,0 0.792716,0.35808 0.792716,0.79324 0,0.0797 -0.01181,0.15663 -0.03411,0.22944 0.324607,-0.0994 0.563273,-0.40317 0.563273,-0.75861 0,-0.43516 -0.357555,-0.79323 -0.792716,-0.79323 z" />
      <path
         id="path381422"
         style="color:#000000;fill:#4377d1;fill-opacity:1;stroke-width:0.769237;stroke-linecap:round;stroke-linejoin:round;stroke-miterlimit:1.5;-inkscape-stroke:none"
         d="m 10.694438,352.44932 c -0.333501,0.009 -0.618103,0.22858 -0.7260542,0.52917 h 1.5415082 c 0.43516,0 0.792716,0.35962 0.792716,0.79478 0,0.0797 -0.01182,0.15666 -0.03411,0.22945 0.324622,-0.0994 0.563274,-0.40316 0.563274,-0.75861 0,-0.43516 -0.357557,-0.79479 -0.792717,-0.79479 h -1.324466 c -0.0068,0 -0.01339,-1.7e-4 -0.02015,0 z" />
      <path
         style="fill:#4377d1;fill-opacity:1;stroke:none;stroke-width:2.2388;stroke-linecap:round;stroke-linejoin:round;stroke-miterlimit:1.5;stroke-opacity:1;stop-color:#000000"
         d="m 4.295373,349.38387 -0.9384576,0.93846 -0.026838,-0.69538 0.6877541,-0.68776 z"
         id="path388928"
         sodipodi:nodetypes="ccccc" />
      <path
         style="fill:#4377d1;fill-opacity:1;stroke:none;stroke-width:2.2388;stroke-linecap:round;stroke-linejoin:round;stroke-miterlimit:1.5;stroke-opacity:1;stop-color:#000000"
         d="m 6.8158884,349.38387 0.9384576,0.93846 0.026838,-0.69538 -0.6877541,-0.68776 z"
         id="path391349"
         sodipodi:nodetypes="ccccc" />
      <path
         id="path417828"
         style="color:#000000;fill:#b01d47;fill-opacity:1;stroke-width:0.769237;stroke-linecap:round;stroke-linejoin:round;stroke-miterlimit:1.5;-inkscape-stroke:none"
         d="m 1.3223999,342.92381 c -0.34223274,0 -0.63598375,0.22256 -0.74620785,0.52916 H 15.082284 c 0.435236,0 0.792716,0.35955 0.792716,0.79479 v 0.52968 h 0.529167 v -1.05885 c 0,-0.43524 -0.35748,-0.79478 -0.792717,-0.79478 z" />
    </g>
  </g>
</svg>
